<?xml version="1.0" standalone="no"?>
<!DOCTYPE svg PUBLIC "-//W3C//DTD SVG 20010904//EN"
 "http://www.w3.org/TR/2001/REC-SVG-20010904/DTD/svg10.dtd">
<svg version="1.0" xmlns="http://www.w3.org/2000/svg"
 width="256.000000pt" height="256.000000pt" viewBox="0 0 256.000000 256.000000"
 preserveAspectRatio="xMidYMid meet">

<g transform="translate(0.000000,256.000000) scale(0.100000,-0.100000)"
fill="#000000" stroke="none">
<path d="M665 2500 c-204 -14 -314 -59 -430 -175 -169 -169 -184 -255 -184
-1050 0 -691 14 -825 101 -956 51 -75 146 -161 220 -199 130 -64 140 -65 898
-65 622 0 692 2 761 18 236 55 401 220 456 454 16 71 18 136 18 763 0 626 -2
692 -18 762 -24 102 -65 181 -132 255 -118 130 -231 177 -468 193 -155 11
-1062 10 -1222 0z m1313 -932 c-3 -389 -3 -393 -27 -446 -19 -42 -62 -89 -228
-248 -113 -108 -221 -203 -241 -212 -33 -15 -85 -17 -427 -17 l-390 0 -3 658
-2 657 660 0 661 0 -3 -392z"/>
</g>
</svg>
