<?xml version="1.0" encoding="UTF-8"?>
<svg id="Ebene_1" xmlns="http://www.w3.org/2000/svg" version="1.1" viewBox="0 0 250 250">
  <!-- Generator: Adobe Illustrator 29.6.1, SVG Export Plug-In . SVG Version: 2.1.1 Build 9)  -->
  <defs>
    <style>
      .st0 {
        fill: #3d3d3d;
      }
    </style>
  </defs>
  <g id="HvuHcm.tif">
    <g>
      <path class="st0" d="M216.86,68.6c-.31-.52-9.56-4.79-10.92-5.3-1.25-.47-3.8-.24-3.98-.37-1.86-1.37,2.07-1.42,1.58-2.36-4.43,1.17-8.61-.27-13.02-.83-.16.08-.3.17-.47.22-.59.31-1.22.45-1.9.42h-1.48c-.8.58-1.76.95-2.8.95-2.99,0-5.97-.08-8.96-.05-1.55.02-3.11.06-4.66.15-.82.05-1.64.11-2.45.18-.37.03-.74.08-1.11.12-.12.01-.24.03-.35.04-1.54.23-3.07.53-4.57.94-.68.19-1.35.4-2.01.64-.09.03-.65.26-.75.3-.18.08-.36.16-.54.25-.66.33-1.3.69-1.92,1.1-.05.03-.28.19-.45.31-.16.13-.4.32-.45.36-.42.37-.79.78-1.16,1.19,2.27-.02-.78,3.41-.65,4.23.21,1.36,1.08,2.99,2.29,4.61.61-1.24,1.77-2.41,3.11-2.61,1.65-.25,2.94-.29,4.58.05,1.14.23,2.25.74,3.26,1.28.07.04.14.09.21.13.44-.89,1.14-1.84,2.21-2.89-1.7-.94-6.59-.95-5.51-3.54.8-1.93,9.5-4.13,11.83-3.59.34,1.3-1.37.36-1.6,1.29-.82,3.45.69,7.38,3.56,9.02,5.22-.82,11.31,2.03,16.29.42,3.57-1.15,2.87-6.62,5.12-9.19,3.21.79,5.75,1.55,9.07.83.7.89-.18,3.86,0,3.95.88.43,7.06.38,8.71.8-.11-.93.31-2.29-.14-3.03Z"/>
      <path class="st0" d="M201.96,38.36c-.96-2.73-3.59-.41-5.54-.79l2.38-1.97c-3.21-1-3.57-1.01-2.39-4.35-.48-.47-10.6,3.69-11.87,2.38-.27-.28.26-2.9,0-3.17-.39-.42-9.81,0-11.48,0-.31,0-1.45,2.04-2.48,2.23-1.36.25-2.51-1.37-5.43-.7-3.97.91-5.69,3.39-8.18,4.72-.68.36-11.16,3.27-6.06,4.05.75.12,2.58-.19,2.76,0,.2.2.2,5.36,0,5.55-.21.19-2.45-.24-3.46.11-1.53.53-.76,3.69-6.03,1.47,1.54,4.58-2.92,6.54-3.62,8.66-.97,2.91-.6,10.51.53,14.86.24-.02.48-.03.72-.06.04,0,.05,0,.08,0,.59-.08,1.17-.16,1.76-.23.51-.06,1.03-.09,1.54-.09-.01-.18-.02-.36,0-.57.04-.49.22-.81.47-1.07-1.5-1.54-1.91-4.01-.78-5.94,7.15-12.24,22.85-12.1,35.64-11.98.3-.21.62-.39.98-.51.21-.11.43-.17.65-.24-1.65-.3-2.85-.58-3.18-.82-1.03-.76-.59-3.01-1.17-4.37-.47-1.1-2.39-1.48-1.95-3.19,2.71.08,5.43,2,8.17.81.92-.4.24-1.74,1.03-2.46.54-.5,4.61-1.95,5.04-1.52l-.78,4.74c4.93.3,7.19-5.18,12.66-5.55Z"/>
      <path class="st0" d="M218.6,62.53c-.37-1.15-18.14-8.67-20.75-9.34-1.09-.28-3.42-.64-6.07-1.02.52.57.9,1.22,1.12,1.98.06.44.12.87.18,1.31.01.34-.02.66-.09.97,3.1-.08,6.11-.03,7.06.1,1.51.21,1.03,1.61,1.64,1.68.95.11,2.07-.72,3.49-.49,3.49.56,10.16,4.45,13.02,6.79.66.01.52-1.62.41-1.98Z"/>
      <path class="st0" d="M76.92,68.46c.12-.11,1.68-.34,3.26-.53-.98-.55-1.97-1.07-2.99-1.54-.28-.13-.57-.26-.85-.38-.06-.02-.12-.05-.21-.08-.62-.24-1.24-.47-1.87-.69-1.21-.41-2.43-.76-3.67-1.06-.01,0-.03,0-.04,0-1.28.49-12.76.68-15.96,1.34-3.62.74-6.63,2.46-9.9,3.55-1.08.36-2.59-.04-3.62.33-2.15.77-1.52,3.59-2.33,4.41-.22.22-5.9,2.02-3.75,4.16.83.82,5.89-1.51,7.03-2.06,1.81-.88,5.34-4.35,5.8-4.52,1.37-.5,7.64-2.05,8.34-1.12.45.6.39,2.1.99,2.95l-3.13.36c1.66,6.15,7.5,5.89,12.86,4.36.67-.19.53-1.49,1.09-1.58,1.19-.2,8.09.86,8.97.03.35-.33-.35-7.59,0-7.92Z"/>
      <path class="st0" d="M106.92,66.76c.29-.52-.66-1.67-.49-2.5.21-.98,1.77-1.84,1.33-3.24-.23-.75-3.24-1.78-3.15-3.63,4.74.92,1.18-3.71.02-4.33-.71-.38-1.61.5-2.2.21-.86-.42-4.28-3.58-5.43-4.5-.66-.53-1.93-.54-2.48-1.08-1.75-1.73-.3-6.15-1.35-7.76-1.49-2.28-9.1-.04-2.81-4.71-2.25-.2-4.44-1.12-6.77-.88-1.44.15-1.07,1.28-1.35,1.44-1.33.74-7.54-1.21-9.7-1.34-9.37-.57-17.43,3.52-25.67,5.97-1.15.34-15.35,1.44-13.5,2.72,3.21-1.45,5,1.5,5.29,1.57,1.31.32,10.49.85,12.52.88,4.27.06,9.16-2.47,13.4-1.69.99.18-.09,2.72,1.19,3.65.88.64,4.21.49,5.58,1.16-2.57,4.01-8.05,1.61-11.34,1.88-6.33.52-13.77,2.4-19.72,4.65-1.71.65-4.46,1.27-5.35,2.96,1.47-.46,4.44,1.54,5.18,1.42,1.05-.17,1.21-3.07,3.11-3.04,1.23.02,1.93,1.84,3.75,1.49.23-.04,4.16-1.54,4.36-1.67.68-.45,1.1-2.69,2.28-2.92.97-.19,1.78,1.56,3.08,1.59.51,0,.3-1.58.88-1.67.71-.11,2.1.25,3.67.56.68-.36,1.43-.57,2.19-.54,1.23.06,2.45.17,3.66.31.89-.46,1.63-.99,2.11-.92.28.04,2.41,1.36,2.86,1.75,3.29.72,6.51,1.78,9.65,3.19,3.98,1.79,6.43-.26,9.85,2.44.14-1.35.55.25,3.94-.39"/>
      <path class="st0" d="M119.88,212.77c2.73,1.21.27,3.54.56,3.79,1.06.92,3.97-2.15,4.74-1.58.47.35.88,3.12,2.06,5.19,1.53-.06,3.06-.1,4.6-.14-.38-3.19,2.17-1.91,3.58-3.92.82-1.16.83-2.92.85-4.3,2.24,2.72,9.47-.02,7.03-3.09-.33-.42-9.05-1.58-10.56-1.69-2.72-.2-6.91.83-8.61.58-2.81-.42-4.55-1.94-8.87-1.4-1.6.2-2.31,3.87-5.9,2.43-.48-.97,3.4-.95,1.57-2.36-1.01-.78-7.07.62-6.33,3.16l2.37.79-3.95,3.17c5.34-.82,11.63-2.93,16.84-.62Z"/>
      <path class="st0" d="M163.55,177.94c1.12,1.15-2.88,6.29-3.98,6.43-3.89.5-9.57,3.34-13.3,4.59-1.06.36-1.05,1.82-1.45,2.06-1.33.83-13.38-1.15-16.07-1.39-10.11-.9-27.27-.32-36-4.4-1.18-.55-3.27-5.93-2.89-7.99,3.31-.72,5.74,5.99,10.41,7.63s10.75-.62,15.54-.33c3.3.2,5.63,1.71,8.2,1.95,3.6.34,5.5-1.47,7.98-1.58,2.67-.12,6.8.85,10.27.78s18.76-10.36,21.3-7.76Z"/>
      <path class="st0" d="M113.82,132.15c6.41,3.23-4.25,4.19-7.21,3.61-6.28-1.23.92-6.78,7.21-3.61Z"/>
      <path class="st0" d="M156.84,132.63c-1.08,2.03-4.47,1.91-6.29,2.83-1.03.52-1.38,3.31-5.57,1.91.77-5.29,7.3-8.18,11.86-4.74Z"/>
      <path class="st0" d="M209.87,39.16c-3.15-1.09-2.12,2.29-2.76,2.41-3.89.74-2.26-1.22-3.57-3.98,2.09.14,5.37-.88,6.33,1.57Z"/>
    </g>
  </g>
</svg>